<svg width="12" height="14" viewBox="0 0 12 14" fill="none" xmlns="http://www.w3.org/2000/svg">
<rect x="0.75" y="5.75" width="10.5" height="7.5" rx="3.25" stroke="#717171" stroke-width="1.5"/>
<path d="M6 10.5L6 9" stroke="#717171" stroke-width="1.5" stroke-linecap="round" stroke-linejoin="round"/>
<path d="M8.45304 2.85669C8.6898 3.19657 9.15726 3.28015 9.49714 3.04339C9.83701 2.80662 9.9206 2.33916 9.68383 1.99929L8.45304 2.85669ZM3.13388 1.79618C2.87651 2.12074 2.93098 2.59248 3.25553 2.84985C3.58008 3.10721 4.05182 3.05275 4.30919 2.7282L3.13388 1.79618ZM3.75 6V4.33333H2.25V6H3.75ZM3.75 4.33333C3.75 2.9066 4.9066 1.75 6.33333 1.75V0.25C4.07817 0.25 2.25 2.07817 2.25 4.33333H3.75ZM9.68383 1.99929C9.19685 1.30023 8.50341 0.771002 7.70063 0.485724L7.19836 1.89913C7.70624 2.07961 8.14495 2.41443 8.45304 2.85669L9.68383 1.99929ZM7.70063 0.485724C6.89786 0.200446 6.02596 0.17341 5.20705 0.408402L5.62078 1.85021C6.13887 1.70155 6.69048 1.71865 7.19836 1.89913L7.70063 0.485724ZM5.20705 0.408402C4.38814 0.643393 3.66324 1.12864 3.13388 1.79618L4.30919 2.7282C4.64409 2.30588 5.1027 1.99888 5.62078 1.85021L5.20705 0.408402Z" fill="#717171"/>
</svg>
